<svg xmlns="http://www.w3.org/2000/svg" width="386.262" height="81.3333" viewBox="0 0 386.262 81.3333"><defs><style>.a{fill:#0095da;}.b{fill:#414042;}</style></defs><path class="a" d="M0,3.25V78.0833a3.25,3.25,0,0,0,3.25,3.25H27.2537a3.2478,3.2478,0,0,0,2.3634-5.48C21.554,67.34,7.8333,48.9167,8.3333,40.3333c.6336-10.8758.8334-15.75,21.2516-34.83A3.2367,3.2367,0,0,0,27.2433,0H3.25A3.25,3.25,0,0,0,0,3.25Z"/><path class="a" d="M76.5585,0H46.6105a2.9157,2.9157,0,0,0-2.1431.9388L18.88,28.68a17.3339,17.3339,0,0,0-.2035,23.28L43.9637,80.3568a2.9154,2.9154,0,0,0,2.1773.9765H76.5585a2.9154,2.9154,0,0,0,2.1172-4.92L46.7309,42.671a2.9154,2.9154,0,0,1,0-4.0087L78.6757,4.92A2.9155,2.9155,0,0,0,76.5585,0Z"/><path class="b" d="M103.5413,11.5244h12.32V36.0053l22.7207-24.4809h14.8809L130.6624,35.2851l23.8408,32.2407H139.7025l-17.36-23.84-6.4805,6.72V67.5258h-12.32Z"/><path class="b" d="M155.0618,39.685v-.16c0-15.92,12.5606-28.9609,29.8409-28.9609s29.6806,12.88,29.6806,28.8008v.16c0,15.92-12.5605,28.96-29.8408,28.96S155.0618,55.6054,155.0618,39.685Zm46.6407,0v-.16c0-9.6006-7.04-17.6006-16.96-17.6006s-16.8008,7.84-16.8008,17.4405v.16c0,9.6,7.04,17.6,16.961,17.6S201.7025,49.2856,201.7025,39.685Z"/><path class="b" d="M225.54,11.5244h25.6c7.12,0,12.6407,2,16.32,5.68,3.12,3.12,4.8007,7.5205,4.8007,12.8v.16c0,9.04-4.88,14.72-12,17.36l13.68,20.0005h-14.4l-12-17.92h-9.6806v17.92H225.54ZM250.3411,38.725c6,0,9.4405-3.2,9.4405-7.92v-.16c0-5.28-3.68-8-9.6807-8h-12.24v16.08Z"/><path class="b" d="M302.5814,11.1245h11.36l24,56.4013h-12.88l-5.12-12.56H296.2611l-5.12,12.56H278.58Zm12.96,32.9609-7.44-18.1607-7.4394,18.1607Z"/><path class="b" d="M341.9407,59.3657l7.28-8.72c5.04,4.16,10.32,6.8,16.7207,6.8,5.04,0,8.08-2,8.08-5.28v-.16c0-3.12-1.92-4.72-11.28-7.12-11.28-2.88-18.56-6-18.56-17.12v-.16c0-10.16,8.16-16.88,19.6006-16.88a32.4189,32.4189,0,0,1,20.8007,7.12l-6.4,9.28c-4.96-3.44-9.8409-5.52-14.5606-5.52s-7.2,2.16-7.2,4.88v.16c0,3.68,2.4,4.88,12.08,7.36,11.36,2.96,17.7607,7.0406,17.7607,16.8008v.16c0,11.1206-8.48,17.36-20.56,17.36A35.6379,35.6379,0,0,1,341.9407,59.3657Z"/></svg>