<svg xmlns="http://www.w3.org/2000/svg" width="398.6757" height="83.9486" viewBox="0 0 398.6757 83.9486"><defs><style>.a{fill:#0095da;}.b{fill:#fff;}</style></defs><path class="a" d="M0,3.3545v77.24a3.3545,3.3545,0,0,0,3.3545,3.3545H28.13a3.3522,3.3522,0,0,0,2.4393-5.6563C22.2471,69.5053,8.0852,50.49,8.6013,41.63c.6539-11.2255.86-16.2565,21.9349-35.95A3.3407,3.3407,0,0,0,28.1193,0H3.3545A3.3546,3.3546,0,0,0,0,3.3545Z"/><path class="a" d="M79.02,0H48.1092a3.0093,3.0093,0,0,0-2.2119.9689L19.4866,29.6023a17.8913,17.8913,0,0,0-.21,24.0289l26.1009,29.31a3.0091,3.0091,0,0,0,2.2472,1.0079H79.02a3.0091,3.0091,0,0,0,2.1852-5.0779L48.2335,44.0431a3.0092,3.0092,0,0,1,0-4.1376L81.2055,5.078A3.0092,3.0092,0,0,0,79.02,0Z"/><path class="b" d="M106.87,11.9012h12.7148V37.1664l23.4488-25.2652h15.3569L134.86,36.4232l24.6045,33.2744H144.1894l-17.9165-24.605-6.688,6.9356V69.6976H106.87Z"/><path class="b" d="M160.0473,40.9642v-.165c0-16.43,12.9629-29.8887,30.7969-29.8887s30.6314,13.293,30.6314,29.7236v.1651c0,16.4306-12.9629,29.8886-30.7964,29.8886S160.0473,57.3949,160.0473,40.9642Zm48.1358,0v-.165c0-9.9078-7.2661-18.1641-17.5039-18.1641S173.34,30.7264,173.34,40.6341v.1651c0,9.9077,7.2656,18.165,17.5039,18.165S208.1831,50.8724,208.1831,40.9642Z"/><path class="b" d="M232.792,11.9012h26.4209c7.3486,0,13.0459,2.0645,16.8437,5.8623,3.22,3.22,4.9541,7.7613,4.9541,13.2105v.165c0,9.33-5.0371,15.1919-12.3848,17.917l14.1182,20.6416H267.8828L255.498,51.2025h-9.9912V69.6976H232.792Zm25.5957,28.0723c6.1923,0,9.7422-3.3028,9.7422-8.1738v-.1651c0-5.4492-3.7979-8.2568-9.99-8.2568H245.5068V39.9735Z"/><path class="b" d="M312.3066,11.4886h11.7246l24.7695,58.209H335.5078l-5.2842-12.9629H305.7841L300.5,69.6976H287.5371Zm13.376,34.0171L318.0039,26.763l-7.6787,18.7427Z"/><path class="b" d="M352.9345,61.2757l7.5137-9c5.2022,4.294,10.6514,7.0186,17.2559,7.0186,5.2021,0,8.3388-2.0645,8.3388-5.45V53.68c0-3.22-1.9814-4.8715-11.6406-7.3486-11.6416-2.9722-19.1553-6.1924-19.1553-17.6689v-.1651c0-10.4858,8.4219-17.4214,20.2286-17.4214a33.4556,33.4556,0,0,1,21.4668,7.3487l-6.6055,9.5776c-5.1192-3.55-10.1553-5.6973-15.0264-5.6973s-7.4316,2.2295-7.4316,5.0367v.165c0,3.7978,2.4775,5.0366,12.4677,7.5962,11.7237,3.0547,18.3291,7.2656,18.3291,17.3384v.1655c0,11.477-8.7519,17.9165-21.2187,17.9165A36.78,36.78,0,0,1,352.9345,61.2757Z"/></svg>